# xmcd
#
# Track frame offsets: 
#        150
#        18179
#        51828
#        72848
#        94288
#        114480
#        136056
#        157518
#        171566
#        196914
#        213385
#        229124
#        248091
#        258495
#        274345
#
# Disc length: 3892 seconds
#
# Revision: 1
# Processed by: cddbd v1.5.2PL0 Copyright (c) Steve Scherf et al.
# Submitted via: ExactAudioCopy v0.99pb5
#
DISCID=cd0f320f
DTITLE=Tommy McCoy and Lucky Peterson - Lay My Demons Down
DYEAR=2009
DGENRE=Blues Rock
TTITLE0=Blues Thing
TTITLE1=Bitter Soul To Heal
TTITLE2=They Killed That Man
TTITLE3=Lay My Demons Down
TTITLE4=A Man Who Cried
TTITLE5=Ludella
TTITLE6=I Hate To Wait
TTITLE7=Bricks In My Pillow
TTITLE8=Stay In F.L.A.
TTITLE9=When Your Heart Can Feel The Blues
TTITLE10=Crying Won't Help You
TTITLE11=Follow The Rules
TTITLE12=Black Cat Bone
TTITLE13=The Other Side
TTITLE14=56' Chevy (Instrumental)
EXTD=
EXTT0=
EXTT1=
EXTT2=
EXTT3=
EXTT4=
EXTT5=
EXTT6=
EXTT7=
EXTT8=
EXTT9=
EXTT10=
EXTT11=
EXTT12=
EXTT13=
EXTT14=
PLAYORDER=
